<?xml version="1.0" standalone="no"?>
<!DOCTYPE svg PUBLIC "-//W3C//DTD SVG 20010904//EN"
 "http://www.w3.org/TR/2001/REC-SVG-20010904/DTD/svg10.dtd">
<svg version="1.0" xmlns="http://www.w3.org/2000/svg"
 width="250.000000pt" height="250.000000pt" viewBox="0 0 250.000000 250.000000"
 preserveAspectRatio="xMidYMid meet">
<metadata>
Created by potrace 1.14, written by Peter Selinger 2001-2017
</metadata>
<g transform="translate(0.000000,250.000000) scale(0.100000,-0.100000)"
fill="#000000" stroke="none">
<path d="M1044 2484 c-387 -65 -729 -317 -909 -670 -209 -410 -172 -911 96
-1287 80 -113 242 -267 352 -335 331 -206 730 -249 1097 -116 470 168 796 614
817 1114 9 209 -22 377 -102 563 -112 261 -358 513 -618 632 -222 102 -496
139 -733 99z m396 -69 c300 -49 573 -215 760 -463 65 -87 153 -264 184 -373
135 -475 -34 -978 -429 -1277 -142 -106 -361 -196 -539 -221 -733 -102 -1383
493 -1343 1228 16 293 122 541 322 750 275 288 657 418 1045 356z"/>
<path d="M1139 2400 c-150 -15 -272 -51 -412 -123 -420 -214 -668 -663 -626
-1132 28 -308 185 -602 425 -794 565 -455 1408 -282 1743 358 96 185 134 337
134 541 0 243 -62 444 -202 655 -56 85 -193 225 -281 287 -223 157 -514 235
-781 208z m981 -1735 l0 -135 -870 0 -870 0 0 135 0 135 870 0 870 0 0 -135z"/>
<path d="M786 752 c-2 -4 -9 -36 -16 -72 -6 -36 -13 -73 -16 -82 -8 -27 30
-23 49 5 l16 22 0 -22 c1 -22 5 -23 71 -23 62 0 70 2 70 19 0 13 -8 21 -22 23
-20 3 -24 10 -28 63 -4 44 -9 60 -20 60 -12 0 -15 -15 -13 -79 1 -43 0 -76 -3
-74 -2 3 -9 31 -14 64 -18 103 -19 104 -45 104 -13 0 -26 -3 -29 -8z"/>
<path d="M1032 748 c-16 -16 -16 -140 0 -156 7 -7 27 -12 45 -12 26 0 33 4 33
19 0 13 -8 21 -22 23 -20 3 -23 9 -23 48 0 39 3 45 23 48 14 2 22 10 22 23 0
15 -7 19 -33 19 -18 0 -38 -5 -45 -12z"/>
<path d="M1137 742 c-19 -21 -23 -111 -7 -143 14 -26 66 -26 80 0 16 31 13
127 -6 145 -21 21 -47 20 -67 -2z m43 -78 c0 -25 -4 -43 -9 -39 -11 6 -10 85
1 85 5 0 8 -21 8 -46z"/>
<path d="M1550 703 c-6 -32 -15 -71 -20 -88 -8 -30 -8 -29 -10 10 -1 22 -1 54
0 71 2 37 -19 57 -57 52 -28 -3 -28 -3 -31 -85 -3 -78 -2 -83 18 -83 16 0 20
6 20 31 0 18 4 28 10 24 6 -4 8 -10 5 -15 -13 -21 8 -40 45 -40 28 0 39 5 48
23 l11 22 7 -22 c6 -20 13 -23 64 -23 36 0 62 5 69 13 6 8 10 45 8 88 l-2 74
-42 3 -43 3 -1 -83 -2 -83 -15 83 c-15 79 -16 82 -43 82 -26 0 -28 -4 -39 -57z
m-73 -15 c-3 -8 -6 -5 -6 6 -1 11 2 17 5 13 3 -3 4 -12 1 -19z m220 -60 c-3
-8 -6 -5 -6 6 -1 11 2 17 5 13 3 -3 4 -12 1 -19z"/>
<path d="M1776 748 c-3 -7 -10 -40 -16 -73 -6 -33 -14 -68 -16 -77 -8 -27 31
-23 50 4 l16 22 0 -22 c0 -17 6 -22 25 -22 29 0 29 3 11 105 -11 65 -14 70
-39 73 -16 2 -29 -2 -31 -10z"/>
<path d="M1980 670 l0 -90 29 0 c46 0 61 23 61 94 0 71 -10 86 -57 86 l-33 0
0 -90z m50 -1 c0 -21 -4 -39 -10 -39 -5 0 -10 21 -10 46 0 27 4 43 10 39 6 -3
10 -24 10 -46z"/>
<path d="M441 666 c1 -77 4 -86 20 -86 15 0 19 7 19 32 0 30 1 31 14 12 14
-18 15 -18 25 6 9 23 10 23 10 -12 1 -27 5 -38 16 -38 12 0 15 16 15 86 0 74
-2 85 -17 82 -9 -2 -21 -18 -28 -37 l-11 -34 -10 34 c-7 24 -16 35 -32 37 -22
3 -23 1 -21 -82z"/>
<path d="M570 665 l0 -85 40 0 c36 0 40 3 40 25 0 18 -5 25 -20 25 -11 0 -20
5 -20 10 0 6 9 10 20 10 13 0 20 7 20 20 0 13 -7 20 -20 20 -11 0 -20 5 -20
10 0 6 9 10 20 10 13 0 20 7 20 20 0 17 -7 20 -40 20 l-40 0 0 -85z"/>
<path d="M663 734 c-4 -10 0 -20 10 -26 13 -7 17 -22 16 -64 -1 -30 2 -58 5
-62 15 -14 36 33 36 80 0 26 5 48 10 48 6 0 10 9 10 20 0 17 -7 20 -40 20 -28
0 -43 -5 -47 -16z"/>
<path d="M1230 665 c0 -78 2 -85 20 -85 16 0 20 7 20 33 l1 32 20 -38 c11 -21
26 -37 32 -34 14 4 21 76 12 135 -5 34 -10 42 -27 42 -17 0 -20 -5 -16 -30 3
-16 3 -30 2 -30 -2 0 -10 14 -19 30 -9 17 -22 30 -30 30 -12 0 -15 -17 -15
-85z"/>
<path d="M1340 730 c0 -11 5 -20 10 -20 6 0 10 -26 10 -59 0 -95 39 -97 41 -3
1 29 6 55 10 58 5 3 9 14 9 25 0 16 -7 19 -40 19 -33 0 -40 -3 -40 -20z"/>
<path d="M1870 667 c0 -46 3 -86 6 -90 14 -14 34 7 35 37 l0 31 17 -37 c29
-65 42 -49 42 52 0 83 -1 90 -20 90 -16 0 -20 -7 -20 -32 l-1 -33 -14 33 c-8
17 -21 32 -30 32 -12 0 -15 -15 -15 -83z"/>
</g>
</svg>
